<svg width="1512" height="282" viewBox="0 0 1512 282" fill="none" xmlns="http://www.w3.org/2000/svg">
<path d="M1482.73 137.312C1487.94 129.074 1489.92 124.033 1485.89 125.424C1482.87 126.475 1477.74 130.083 1471.82 135.096C1467.75 134.372 1463.45 133.775 1459.18 133.307C1476.83 110.143 1491.53 89.2804 1486.56 89.5502C1481.59 89.82 1457.87 110.853 1435.38 132.043C1429.28 132.074 1423.2 132.358 1417.15 132.895C1437.27 97.0631 1459.28 53.463 1459.28 53.463C1449.26 58.8029 1415.24 103.951 1391.24 136.928C1388.53 137.539 1385.86 138.178 1383.23 138.902C1397.24 106.522 1412.43 63.7736 1412.43 63.7736C1397.99 73.715 1372.18 120.766 1358.11 147.878L1356.07 148.829C1365.58 121.391 1374.4 80.9154 1374.4 80.9154C1354.04 96.9353 1344.61 120.482 1340.13 138.987C1339.48 109.007 1326.98 79.552 1326.98 79.552C1314.42 97.6028 1312.38 134.301 1312.32 155.192C1296.08 142.521 1275.27 133.111 1252.06 127.938C1257.49 122.733 1260.94 116.648 1262.07 110.257C1251.14 112.501 1241.71 119.602 1235.75 124.984L1234.61 124.814C1237.37 118.375 1237.59 111.532 1235.22 105.016C1227.07 109.035 1221.94 116.491 1218.93 122.57C1215.24 118.936 1210.71 115.758 1205.51 113.168C1205.45 113.332 1205.39 113.498 1205.35 113.665C1203.92 112.766 1202.41 111.931 1200.83 111.166C1199.56 115.116 1199.71 119.223 1201.26 123.124C1150.24 124.544 1106.5 143.958 1085.21 171.766C1080.12 154.184 1074.46 139.513 1071.85 144.313C1068.17 151.116 1067.78 179.69 1067.78 196.789H1064.05C1054.24 169.067 1029.54 113.736 1025.14 121.874C1020.75 130.012 1034.51 179.207 1039.64 196.789H1038.77C1027.61 170.842 994.238 90.6722 987.866 95.1174C981.493 99.5626 1001.93 179.719 1006.35 196.789H1005.7C992.691 169.081 929.739 80.3331 929.739 80.3331C927.438 90.9846 965.144 167.633 979.783 196.789H978.765C959.057 168.172 906.06 108.212 906.06 108.212C905.775 122.3 938.636 171.396 956.41 196.804H955.005C933.342 172.348 895.962 137.326 895.962 137.326C896.934 145.631 899.771 153.778 904.37 161.469C882.773 151.683 857.841 146.068 832.118 145.194C806.395 144.321 780.8 148.222 757.942 156.498C746.923 149.026 732.374 144.614 717.024 144.091C701.675 143.568 686.579 146.97 674.568 153.658C667.337 150.998 659.789 148.779 652.01 147.026C657.438 141.812 660.885 135.724 662.027 129.33C651.073 131.588 641.667 138.689 635.681 144.072L634.561 143.901C637.328 137.457 637.539 130.611 635.172 124.089C627.028 128.109 621.898 135.579 618.884 141.657C615.199 138.016 610.655 134.837 605.447 132.256C605.447 132.412 605.345 132.582 605.284 132.738C603.868 131.839 602.365 131.008 600.784 130.253C599.516 134.203 599.663 138.31 601.212 142.211C582.756 142.601 564.593 145.534 547.768 150.84C530.944 156.146 515.79 163.721 503.179 173.129C482.739 165.849 460.103 162.076 437.152 162.122C431.375 162.131 425.603 162.377 419.867 162.861C422.239 156.727 422.302 150.27 420.05 144.114C412.985 147.565 408.262 153.573 405.208 159.041C401.273 154.839 396.254 151.184 390.406 148.261C388.146 154.07 390.61 161.043 393.786 166.724C376.121 170.483 359.71 176.663 345.513 184.902C339.308 179.276 332.173 174.181 324.257 169.72C333.785 150.519 345.818 121.789 339.038 126.135C332.93 130.111 317.823 149.383 308.335 161.98C307.277 161.54 306.299 161.1 305.159 160.674C313.303 137.553 324.705 94.3079 317.212 99.1224C309.72 103.937 294.206 139.3 287.548 154.879L286.611 154.638C293.371 131.034 311.573 69.355 304.752 71.1018C297.932 72.8487 268.206 136.701 262.2 149.809H261.793C267.575 126.901 270.466 47.1431 270.466 47.1431C262.322 54.9116 246.217 128.194 241.962 148.19H241.82C244.324 125.907 237.748 62.1688 237.748 62.1688C228.443 74.1126 225.939 131.261 225.41 147.75C225.084 126.745 214.375 81.171 214.375 81.171C204.602 96.353 205.477 115.611 208.531 130.551C208.307 130.31 208.104 130.069 207.88 129.841C199.858 114.889 189.493 100.6 176.974 87.2353C176.059 93.696 176.415 100.213 178.032 106.607C147.435 88.9615 108.99 79.2911 69.2904 79.2538C73.7872 74.4536 76.6432 68.997 77.6379 63.3049C65.422 65.8329 54.896 74.4677 49.297 79.9212C52.9055 72.8985 53.444 65.2866 50.8444 58.0502C42.7004 62.0694 37.5697 69.5396 34.5565 75.6039C30.8677 71.9696 26.3326 68.7918 21.1393 66.2022C21.1393 66.3726 21.0172 66.5288 20.9764 66.6992C19.5485 65.7947 18.0388 64.955 16.4566 64.1855C14.0541 70.3775 17.0063 77.8762 20.5285 83.699C11.3697 85.4644 2.43537 87.754 -6.18359 90.5444L-6.18359 280.678H1520.81V151.073C1509.22 145.135 1496.37 140.492 1482.73 137.312Z" fill="#A8D1E6"/>
<path d="M1505.43 227.759C1501.72 227.766 1498.06 228.348 1494.7 229.464C1498.29 222.521 1499.63 215.109 1498.61 207.763C1493.1 211.355 1489.07 215.91 1486.93 220.957C1487.71 212.958 1485.49 204.956 1480.49 197.736C1477.81 202.312 1476.37 207.195 1476.24 212.137C1467.69 204.411 1456.35 199.71 1443.89 199.71C1432.87 199.71 1422.73 203.389 1414.63 209.581C1414.11 203.367 1411.77 197.292 1407.77 191.729C1404.56 197.488 1403.23 203.674 1403.88 209.836C1399.71 205.021 1393.21 201.405 1385.56 199.639C1390.52 179.629 1393.39 162.033 1388.1 166.478C1382.81 170.923 1373.42 186.645 1365.01 201.741C1361.68 203.195 1358.71 205.023 1356.24 207.152C1355.54 206.584 1354.83 206.03 1354.1 205.505C1358.99 173.096 1362.89 125.974 1355.3 132.393C1348.46 138.074 1338.56 172.84 1332.42 196.614C1331.45 196.47 1330.48 196.361 1329.5 196.288C1333.9 159.05 1341.27 93.5647 1334.02 96.1637C1325.35 99.2597 1299.8 192.198 1295.99 206.201L1295.71 206.414C1299.03 177.825 1286.16 67.2342 1286.16 67.2342C1277.34 78.5958 1271.66 183.265 1270.5 206.556C1270.16 178.833 1248.11 90.0994 1248.11 90.0994C1238.82 106.858 1247.15 183.193 1249.8 205.207C1245.17 177.257 1222.57 117.481 1222.57 117.481C1213.15 138.997 1218.5 165.228 1225.57 185.011C1206.65 155.045 1176.83 128.771 1176.83 128.771C1176.07 147.333 1191.22 177.74 1203.54 199.242C1200.31 198.796 1197.03 198.573 1193.75 198.574C1180.44 198.649 1167.64 202.16 1157.83 208.43C1157.1 202.1 1154.21 195.984 1149.4 190.593C1145.49 196.216 1143.85 202.475 1144.64 208.7C1141 205.371 1136.33 202.66 1130.98 200.77C1125.63 198.881 1119.73 197.863 1113.73 197.793C1108.6 197.83 1103.53 198.576 1098.82 199.987C1094.1 201.399 1089.84 203.448 1086.27 206.016C1076.24 199.026 1062.69 195.059 1048.52 194.967C1027.59 194.967 1009.2 203.801 998.718 217.122C997.481 211.964 994.811 207.024 990.859 202.579C986.833 208.378 985.204 214.846 986.156 221.255C982.435 217.603 977.69 214.516 972.21 212.18C971.703 218.667 973.857 225.12 978.419 230.784C976.334 231.118 974.292 231.569 972.312 232.134C965.706 228.564 957.599 226.613 949.244 226.581C944.741 226.587 940.278 227.165 936.071 228.285C940.519 221.455 942.209 213.907 940.957 206.456C934.457 209.797 929.474 214.372 926.604 219.636C927.451 211.545 924.692 203.469 918.704 196.515C915.437 200.992 913.649 205.922 913.471 210.944C908.427 207.083 902.297 203.987 895.463 201.849C888.63 199.711 881.238 198.577 873.749 198.517C860.443 198.592 847.647 202.104 837.835 208.374C837.107 202.044 834.217 195.927 829.406 190.536C825.496 196.16 823.85 202.418 824.641 208.643C821.007 205.314 816.338 202.603 810.984 200.714C805.631 198.824 799.734 197.806 793.735 197.736C788.605 197.773 783.537 198.519 778.823 199.93C774.108 201.342 769.842 203.391 766.27 205.959C756.248 198.969 742.694 195.002 728.523 194.91C707.593 194.91 689.208 203.744 678.722 217.065C677.485 211.907 674.816 206.967 670.863 202.522C666.837 208.322 665.208 214.789 666.16 221.198C662.439 217.546 657.694 214.459 652.214 212.123C651.707 218.61 653.861 225.064 658.424 230.728C654.634 231.314 650.995 232.3 647.633 233.653C640.597 229.133 631.402 226.602 621.837 226.552C617.334 226.559 612.871 227.136 608.664 228.256C613.077 221.43 614.738 213.893 613.469 206.456C606.969 209.797 601.986 214.372 599.115 219.636C599.963 211.545 597.203 203.469 591.216 196.515C587.948 200.992 586.161 205.922 585.983 210.944C580.939 207.083 574.809 203.987 567.975 201.849C561.141 199.711 553.75 198.577 546.261 198.517C532.96 198.592 520.171 202.103 510.367 208.374C509.63 202.045 506.74 195.93 501.938 190.536C498.013 196.156 496.358 202.416 497.153 208.643C493.514 205.301 488.834 202.58 483.465 200.686C478.097 198.791 472.181 197.773 466.165 197.708C461.036 197.745 455.967 198.491 451.253 199.902C446.539 201.313 442.272 203.363 438.7 205.931C428.696 198.949 415.165 194.982 401.014 194.882C380.064 194.882 361.679 203.715 351.193 217.037C349.956 211.879 347.286 206.938 343.334 202.494C339.308 208.293 337.679 214.76 338.631 221.17C334.91 217.518 330.165 214.431 324.685 212.095C324.178 218.582 326.332 225.035 330.895 230.699C328.809 231.033 326.767 231.484 324.787 232.048C318.181 228.479 310.074 226.528 301.719 226.495C297.216 226.502 292.753 227.079 288.546 228.2C292.958 221.393 294.633 213.877 293.392 206.456C286.929 209.806 281.982 214.381 279.14 219.636C279.957 211.538 277.162 203.461 271.138 196.515C267.871 200.992 266.083 205.922 265.906 210.944C261.481 207.669 256.324 204.916 250.636 202.792C259.004 172.613 264.114 145.984 255.909 152.645C248.763 158.411 235.855 178.209 223.618 198.56C216.958 198.79 210.424 199.919 204.378 201.883C212.522 153.753 218.814 91.5339 207.738 100.438C196.662 109.343 178.827 167.316 168.708 203.019C167.588 202.451 166.448 201.912 165.267 201.429C173.411 146.254 188.559 41.3014 177.137 45.2069C164.819 49.3965 127.133 170.525 116.729 204.695C116.241 204.383 115.732 204.085 115.202 203.801C119.274 151.566 105.979 0.399658 105.979 0.399658C93.6615 15.5674 81.9343 142.42 77.4755 194.967C76.8036 194.967 76.1521 195.038 75.4395 195.095C71.1843 142.547 47.3836 34.2004 47.3836 34.2004C33.1317 58.5568 41.3774 167.884 44.6757 205.022L44.4925 205.136C37.6516 161.535 7.58007 75.1163 7.58007 75.1163C-7.58802 107.454 -0.563869 147.22 9.20886 177.371C-18.1344 131.669 -62.0506 91.335 -62.0506 91.335C-65.0639 135.219 -10.5198 223.783 -3.33281 235.258C-15.3858 241.28 -23.4483 252.045 -23.4483 264.358C-23.4739 269.942 -21.7507 275.463 -18.3991 280.534H1244.01L1244.62 281.727H1533.45C1537.75 275.532 1539.94 268.727 1539.84 261.844C1539.84 242.998 1524.43 227.759 1505.43 227.759Z" fill="#C1EAFF"/>
</svg>
