<svg width="56" height="56" viewBox="0 0 56 56" fill="none" xmlns="http://www.w3.org/2000/svg">
<path d="M28.3329 51.48C43.6001 51.48 55.991 52.4915 55.991 53.7558C55.991 54.9889 43.6001 56.0001 28.3329 56.0001C13.0657 56.0001 0.706627 54.9886 0.706627 53.7558C0.706627 52.4915 13.0657 51.48 28.3329 51.48Z" fill="#153647" fill-opacity="0.12"/>
<path d="M28.8388 0.842285C42.369 0.842285 53.4939 11.2098 54.6949 24.4225L38.1004 25.5919L54.8213 26.414V26.8251C54.8213 41.1773 43.1894 52.8078 28.8388 52.8078C20.2097 52.8078 12.5286 48.572 7.81874 42.0923L28.7135 41.0808L6.17525 39.4999C4.05735 35.7701 2.85607 31.4397 2.85607 26.8261C2.85607 22.78 3.7727 18.9238 5.44805 15.51L18.4709 14.8781L6.23828 14.0231C10.6954 6.15263 19.1348 0.842285 28.8388 0.842285Z" fill="#33BBFF"/>
<path d="M28.7438 32.0403C20.5253 32.0403 9.46237 28.7215 13.9825 21.3874C13.4176 19.2779 13.4724 17.0502 14.1404 14.971C12.7453 10.2212 12.6907 5.17812 13.9825 0.39917C17.6819 1.78987 21.1576 3.71801 24.3185 6.0887C25.7726 5.83591 27.2582 5.70951 28.7438 5.67766C30.2374 5.70495 31.727 5.84234 33.2005 6.0887C36.355 3.70579 39.8362 1.78961 43.5369 0.39917C44.834 5.17907 44.7683 10.2265 43.3471 14.971C44.041 17.0444 44.1071 19.2766 43.5369 21.3874C48.0252 28.7222 36.9938 32.0403 28.7438 32.0403Z" fill="#25B6FF"/>
<path d="M28.7437 32.4513C24.3185 32.4513 19.0715 31.5028 15.7839 29.4801C14.8042 28.8793 14.014 28.1524 13.445 27.3622C12.8446 26.5401 12.5284 25.6238 12.5284 24.6123C12.5284 23.6008 12.8446 22.5259 13.5399 21.324C13.2868 20.2806 13.1604 19.2376 13.1922 18.1631C13.2296 17.0799 13.4102 16.0064 13.7293 14.9706C13.034 12.5999 12.6863 10.1658 12.6548 7.70027C12.6233 5.20318 12.9076 2.70609 13.5714 0.303878C13.5855 0.251702 13.6098 0.202849 13.6429 0.160178C13.676 0.117507 13.7174 0.0818749 13.7644 0.0553683C13.8115 0.0288617 13.8634 0.012013 13.9171 0.00580778C13.9708 -0.000397491 14.0251 0.00416542 14.077 0.0192299H14.1404C15.9935 0.736129 17.799 1.57077 19.5456 2.51803C21.221 3.46618 22.8644 4.5092 24.4134 5.67862C25.1087 5.55234 25.8041 5.45757 26.4994 5.39431C27.2267 5.33094 27.985 5.29943 28.7437 5.29943C29.5026 5.29943 30.2612 5.33106 31.0196 5.39431C31.7149 5.45734 32.4103 5.55223 33.0748 5.67862C34.6237 4.5092 36.2672 3.46618 37.9731 2.51803C39.7114 1.56955 41.5132 0.716292 43.3779 0.0206004C43.4829 -0.012856 43.5967 -0.00535456 43.6964 0.0415991C43.7961 0.0885528 43.8743 0.171483 43.9154 0.273735V0.305248C44.5781 2.71378 44.8973 5.20384 44.8635 7.70164C44.828 10.1642 44.4559 12.6103 43.7575 14.972C44.1051 16.015 44.2631 17.0895 44.2946 18.1644C44.3322 19.2275 44.226 20.2908 43.9788 21.3254C44.6741 22.5263 44.9903 23.6012 44.9903 24.6137C44.9903 25.6262 44.6422 26.5418 44.0736 27.3636C43.5043 28.1538 42.6826 28.8807 41.7029 29.4815C38.4478 31.5028 33.2005 32.4513 28.7437 32.4513ZM16.2264 28.7861C19.3558 30.7143 24.4449 31.6309 28.7437 31.6309C33.0741 31.6309 38.1316 30.7143 41.2926 28.7861C42.1777 28.2487 42.9046 27.6164 43.4105 26.8895C43.8846 26.2257 44.1689 25.4354 44.1689 24.6137C44.1689 23.6971 43.8846 22.7171 43.1892 21.6107C43.1258 21.5158 43.1258 21.4209 43.1573 21.2945C43.4152 20.2829 43.5321 19.2406 43.505 18.197C43.4673 17.1443 43.2862 16.1018 42.9669 15.098C42.935 15.0347 42.935 14.9398 42.9669 14.8449C43.6526 12.5246 44.0142 10.1206 44.0414 7.7013C44.0792 5.42154 43.8135 3.14689 43.2512 0.937229C41.5759 1.60072 39.9324 2.35944 38.3529 3.24456C36.6461 4.1927 35.0022 5.23572 33.4204 6.437C33.3574 6.50036 33.231 6.53188 33.1046 6.50037C32.4089 6.37397 31.682 6.27909 30.9552 6.21572C30.2209 6.12723 29.4819 6.08501 28.7424 6.08932C28.0138 6.08475 27.2858 6.12755 26.5628 6.21743C25.8356 6.2808 25.1087 6.37568 24.4134 6.50208C24.3542 6.51622 24.2927 6.51788 24.2329 6.50697C24.173 6.49606 24.1161 6.47282 24.0657 6.43871C22.5168 5.23743 20.8733 4.19441 19.1332 3.24627C17.5566 2.3631 15.9198 1.59208 14.2349 0.938941C13.6975 3.15138 13.4128 5.42617 13.4447 7.70301C13.4762 10.1056 13.8557 12.5078 14.5511 14.8466C14.5511 14.9415 14.5826 15.0049 14.5511 15.0997C14.2068 16.0978 14.015 17.1421 13.9821 18.1973C13.95 19.2431 14.0778 20.2877 14.3613 21.2949C14.3928 21.3897 14.3613 21.5161 14.2979 21.611C13.6345 22.7174 13.3183 23.6974 13.3183 24.614C13.3183 25.4361 13.6026 26.226 14.0767 26.8899C14.5829 27.615 15.3098 28.2473 16.2264 28.7848V28.7861Z" fill="#153647"/>
<path d="M28.7441 32.0403C20.6839 32.0403 9.93679 28.8478 13.6982 21.8622C17.1438 15.7934 21.0946 23.6639 26.4998 18.4169C27.0372 17.8795 27.9854 18.0692 28.7441 17.9744C29.5028 18.0692 30.451 17.8795 31.0199 18.4169C36.4251 23.6639 40.3448 15.7934 43.79 21.8622C47.5514 28.8478 36.8043 32.0403 28.7441 32.0403Z" fill="white"/>
<path d="M28.7437 18.1008C30.2927 18.1008 31.5255 18.5749 31.5255 19.1439C31.5255 19.7128 30.2923 21.6101 28.7437 21.6101C27.2266 21.6101 25.962 19.7135 25.962 19.1439C25.962 18.5742 27.2266 18.1008 28.7437 18.1008Z" fill="#153647"/>
<path d="M28.7438 17.6897C29.5659 17.6897 30.3242 17.8164 30.8617 18.0377C31.5255 18.259 31.9362 18.6697 31.9362 19.1438C31.9362 19.5548 31.4622 20.503 30.7031 21.1668C30.166 21.6409 29.5022 21.9889 28.7434 21.9889C28.0166 21.9889 27.3527 21.6409 26.8153 21.1668C26.0566 20.503 25.551 19.5548 25.551 19.1438C25.551 18.6697 25.962 18.259 26.6574 18.0377C27.1948 17.8164 27.922 17.6897 28.7438 17.6897ZM30.577 18.7961C30.1345 18.6067 29.471 18.5118 28.7438 18.5118C28.0166 18.5118 27.3846 18.6067 26.9105 18.7961C26.5944 18.9225 26.3731 19.0492 26.3731 19.1438C26.3731 19.3969 26.7523 20.0289 27.3531 20.5663C27.7323 20.914 28.2382 21.1986 28.7438 21.1986C29.2812 21.1986 29.7553 20.914 30.1663 20.5663C30.7353 20.0289 31.146 19.3969 31.146 19.1438C31.146 19.0492 30.9247 18.9225 30.577 18.7961Z" fill="#153647"/>
<path d="M23.7507 22.4945C23.5924 22.3048 23.6243 22.052 23.8137 21.9256C23.9719 21.7677 24.2247 21.7992 24.3826 21.9889C24.8886 22.6209 25.5524 23.032 26.3111 23.1899C27.0626 23.3535 27.8479 23.2413 28.5236 22.8737C28.6815 22.7788 28.8082 22.8107 28.9346 22.8737C29.63 23.2532 30.4202 23.3478 31.1789 23.1899C31.9058 23.0635 32.6011 22.6524 33.1386 22.052C33.2965 21.8941 33.5496 21.8622 33.7075 22.0205C33.8654 22.1469 33.8973 22.3996 33.739 22.5894C33.107 23.3163 32.2534 23.8225 31.307 23.9801C30.431 24.1423 29.5264 24.0319 28.715 23.6639C27.893 24.075 26.9763 24.1384 26.1231 23.9801C25.1785 23.7884 24.3356 23.2605 23.7507 22.4945Z" fill="#153647"/>
<path d="M24.8242 22.9675C24.9506 25.0227 26.6578 26.6327 28.7123 26.6669C30.7984 26.6669 32.5053 25.0865 32.6316 23.0319C31.4937 23.7903 29.9766 23.8852 28.7123 23.2214C27.448 23.8852 25.9621 23.7588 24.8242 22.9675Z" fill="#153647"/>
<path d="M25.3609 23.7273C25.5507 24.3278 25.8984 24.8652 26.3409 25.3078C26.9827 25.9124 27.8299 26.2512 28.7116 26.2559C29.6598 26.2559 30.4815 25.9082 31.1138 25.3078C31.5879 24.8967 31.9041 24.3593 32.0938 23.7588C31.6513 23.9167 31.2087 24.0435 30.7346 24.0435C30.0389 24.1065 29.3751 23.9801 28.7116 23.6639C28.0962 23.9738 27.4064 24.1053 26.7201 24.0435C26.2522 24.0171 25.7924 23.9101 25.3609 23.7273ZM25.772 25.8767C25.0132 25.1495 24.5077 24.1383 24.4443 23.0337C24.4128 22.9388 24.4443 22.8439 24.5077 22.749C24.6341 22.5596 24.8869 22.5277 25.0766 22.6541C25.5822 23.0021 26.1512 23.2231 26.7835 23.2549C27.3863 23.2849 27.9863 23.1539 28.5219 22.8754C28.5802 22.8444 28.6453 22.8281 28.7114 22.8281C28.7776 22.8281 28.8427 22.8444 28.901 22.8754C29.4479 23.1541 30.0582 23.285 30.6713 23.2549C31.3036 23.2231 31.9044 23.0337 32.4096 22.686C32.4883 22.6463 32.5747 22.6247 32.6628 22.6226C32.8841 22.6226 33.0738 22.8124 33.042 23.0337C32.9786 24.1716 32.4415 25.1831 31.6828 25.911C30.875 26.6611 29.814 27.0788 28.7116 27.0807C27.5747 27.0461 26.5314 26.6036 25.772 25.8767Z" fill="#153647"/>
<path d="M26.1202 25.6553C26.8283 26.3032 27.7525 26.6639 28.7122 26.6668C29.6919 26.6668 30.577 26.3192 31.2408 25.7502V25.6553C30.9284 25.2794 30.5371 24.9769 30.0946 24.7693C29.6521 24.5617 29.1693 24.4541 28.6805 24.4541C28.1917 24.4541 27.709 24.5617 27.2665 24.7693C26.824 24.9769 26.4326 25.2794 26.1202 25.6553Z" fill="#66CCFF"/>
<path d="M26.7208 25.6239C26.9736 25.7818 27.2267 25.9082 27.4795 26.0349C27.8587 26.1613 28.3016 26.2562 28.7126 26.2562C29.1552 26.2562 29.5659 26.1932 29.9458 26.0349C30.2033 25.9403 30.4476 25.8129 30.6726 25.6558C30.4513 25.466 30.1986 25.2766 29.9139 25.1498C29.5298 24.9626 29.1081 24.8653 28.6808 24.8653C28.2535 24.8653 27.8318 24.9626 27.4476 25.1498C27.1871 25.2779 26.943 25.4371 26.7208 25.6239ZM27.1949 26.7618C26.6893 26.572 26.2467 26.3193 25.8675 25.9716C25.7093 25.8133 25.6778 25.5605 25.8357 25.4026C26.1827 24.9897 26.6138 24.6556 27.1003 24.4226C27.6059 24.1698 28.1433 24.075 28.6804 24.075C29.2497 24.075 29.7868 24.1698 30.2609 24.4226C30.7458 24.6439 31.1772 24.9674 31.5255 25.3708C31.5886 25.4341 31.6201 25.4972 31.6201 25.5605L31.6519 25.6554C31.6683 25.729 31.6653 25.8056 31.6431 25.8777C31.621 25.9497 31.5804 26.0148 31.5255 26.0665C31.1351 26.3937 30.6839 26.6407 30.1979 26.7933C29.7553 26.9831 29.2497 27.078 28.7123 27.078C28.1748 27.0461 27.6693 26.9512 27.1949 26.7618Z" fill="#153647"/>
<path d="M29.1232 23.2212C29.1214 23.3297 29.0775 23.4332 29.0008 23.5098C28.9241 23.5865 28.8206 23.6304 28.7122 23.6323C28.4909 23.6323 28.3326 23.4425 28.3326 23.2212V20.7875C28.3645 20.5662 28.5224 20.3765 28.7437 20.3765C28.8521 20.3784 28.9555 20.4223 29.0322 20.499C29.1089 20.5757 29.1528 20.6791 29.1547 20.7875L29.1232 23.2212Z" fill="#153647"/>
<path d="M15.2783 13.1065C16.2265 11.7788 17.3644 10.5779 18.7236 9.59791C19.83 8.77583 20.0512 7.95374 19.3874 7.13165C18.0916 5.70944 16.5745 4.50816 14.8659 3.62305C14.4881 6.78466 14.6464 10.009 15.2783 13.1065Z" fill="#66CCFF"/>
<path d="M15.4996 12.1265C15.8473 11.7155 16.195 11.3044 16.5745 10.9256C17.1546 10.3203 17.7894 9.7699 18.4708 9.28138C18.9449 8.93371 19.2295 8.58603 19.3244 8.26987C19.3874 7.98557 19.3244 7.70092 19.0716 7.3851C18.4393 6.68941 17.7755 6.05743 17.0164 5.48848C16.4413 5.04153 15.8397 4.62974 15.215 4.25534C15.0942 5.62194 15.0518 6.99434 15.0882 8.36578C15.153 9.6294 15.3099 10.8937 15.4996 12.1265ZM17.1438 11.4945C16.578 12.0648 16.0697 12.6894 15.6264 13.3593C15.5547 13.4299 15.4684 13.4839 15.3736 13.5175C15.1523 13.549 14.931 13.4227 14.8995 13.2014C14.5834 11.6209 14.3621 10.0089 14.2987 8.39661C14.2353 6.78429 14.2672 5.17266 14.457 3.56068V3.59219C14.458 3.53363 14.4804 3.47745 14.52 3.43428C14.6149 3.24452 14.8677 3.14964 15.0574 3.27603C15.9316 3.71673 16.7581 4.24635 17.5237 4.8565C18.2925 5.4615 19.0113 6.1275 19.6731 6.848L19.7046 6.87952C20.1157 7.38544 20.2421 7.92254 20.1157 8.45998C19.9574 8.96556 19.5782 9.47149 18.9459 9.91405V9.94556C18.3129 10.3881 17.7121 10.9256 17.1435 11.4945H17.1438Z" fill="#153647"/>
<path d="M42.2092 13.1065C41.2715 11.7576 40.1182 10.5723 38.7955 9.59791C37.6891 8.77583 37.4678 7.95374 38.1317 7.13165C39.413 5.69694 40.9452 4.50796 42.6531 3.62305C43.0012 6.78466 42.873 10.009 42.2092 13.1065Z" fill="#66CCFF"/>
<path d="M41.8934 13.3593C41.4306 12.704 40.9238 12.081 40.3763 11.4945C39.8074 10.9256 39.2066 10.3881 38.5431 9.94556V9.91405C37.9108 9.47149 37.5316 8.96556 37.4052 8.45998C37.2469 7.92254 37.4052 7.38544 37.8162 6.87952L37.8477 6.848C38.4987 6.12795 39.2069 5.46193 39.9656 4.8565C40.7559 4.25603 41.5776 3.71859 42.4627 3.27603C42.6525 3.14964 42.9053 3.24452 43.0002 3.43428C43.0317 3.4658 43.0317 3.52882 43.0317 3.59219V3.56068C43.221 5.16524 43.2845 6.78215 43.2215 8.39661C43.1266 10.0089 42.9368 11.6209 42.621 13.2014C42.5576 13.4227 42.3363 13.549 42.1466 13.5175C42.0198 13.4857 41.925 13.4227 41.8934 13.3593ZM40.9453 10.9273C41.3184 11.3048 41.6668 11.7059 41.9883 12.1282C42.2096 10.8951 42.336 9.63111 42.3994 8.36681C42.4621 6.99611 42.4304 5.62272 42.3045 4.25637C41.6722 4.63556 41.0714 5.0466 40.4712 5.4895C39.7442 6.06308 39.0674 6.69759 38.4482 7.38613C38.1951 7.70195 38.1005 7.9866 38.1951 8.2709C38.2584 8.58706 38.5431 8.93474 39.0172 9.28241C39.7026 9.77834 40.3477 10.3278 40.9463 10.9256L40.9453 10.9273Z" fill="#153647"/>
<path d="M34.9708 11.9685C36.3499 11.9685 37.4679 13.2421 37.4679 14.8133C37.4679 16.3845 36.3499 17.6563 34.9708 17.6563C33.5917 17.6563 32.4737 16.3828 32.4737 14.8133C32.4737 13.2438 33.5917 11.9685 34.9708 11.9685Z" fill="#153647"/>
<path d="M34.1178 13.2014C34.6238 13.2014 35.0345 13.6683 35.0345 14.2444C35.0345 14.8206 34.6234 15.2875 34.1178 15.2875C33.6123 15.2875 33.2009 14.8206 33.2009 14.2444C33.2009 13.6683 33.6112 13.2014 34.1178 13.2014Z" fill="white"/>
<path d="M35.9193 15.667C36.2039 15.667 36.4252 15.9198 36.4252 16.2359C36.4252 16.5521 36.2039 16.8049 35.9193 16.8049C35.6346 16.8049 35.4137 16.5518 35.4137 16.2359C35.4137 15.9201 35.635 15.667 35.9193 15.667Z" fill="white" fill-opacity="0.31"/>
<path d="M22.8017 11.9685C24.1808 11.9685 25.2988 13.2421 25.2988 14.8133C25.2988 16.3845 24.1808 17.6563 22.8017 17.6563C21.4227 17.6563 20.3043 16.3828 20.3043 14.8133C20.3043 13.2438 21.4216 11.9685 22.8017 11.9685Z" fill="#153647"/>
<path d="M23.6232 13.2014C24.1294 13.2014 24.5398 13.6683 24.5398 14.2444C24.5398 14.8206 24.1288 15.2875 23.6232 15.2875C23.1176 15.2875 22.7066 14.8206 22.7066 14.2444C22.7066 13.6683 23.1169 13.2014 23.6232 13.2014Z" fill="white"/>
<path d="M21.8534 15.667C21.5691 15.667 21.3478 15.9198 21.3478 16.2359C21.3478 16.5521 21.5691 16.8049 21.8534 16.8049C22.1377 16.8049 22.3593 16.5518 22.3593 16.2359C22.3593 15.9201 22.138 15.667 21.8534 15.667Z" fill="white" fill-opacity="0.33"/>
<path d="M34.9707 9.34521C35.9832 9.34521 36.804 9.68467 36.804 10.1039C36.804 10.5232 35.9819 10.8623 34.9707 10.8623C33.9595 10.8623 33.1361 10.5229 33.1361 10.1039C33.1361 9.68501 33.9582 9.34521 34.9707 9.34521Z" fill="white"/>
<path d="M22.8015 9.34521C23.8137 9.34521 24.6348 9.68467 24.6348 10.1039C24.6348 10.5232 23.8127 10.8623 22.8015 10.8623C21.7904 10.8623 20.9679 10.5229 20.9679 10.1039C20.9679 9.68501 21.789 9.34521 22.8015 9.34521Z" fill="white"/>
<path d="M15.5641 46.5068C17.7077 47.7204 18.6586 50.0946 17.6878 51.8096C16.7171 53.5247 14.1939 53.9327 12.049 52.7177C9.90401 51.5027 8.95416 49.13 9.92525 47.4149C10.8963 45.6998 13.4208 45.2936 15.5641 46.5068Z" fill="white"/>
<path d="M15.3736 46.8968L15.3421 46.8649C14.3621 46.3278 13.2869 46.138 12.3706 46.296C11.4858 46.4224 10.7264 46.8968 10.2846 47.6236C9.87351 48.3508 9.87351 49.2678 10.2212 50.0899C10.5689 50.975 11.2646 51.7968 12.2442 52.3657C13.2557 52.9031 14.2994 53.0926 15.2472 52.9347C16.1323 52.8083 16.8914 52.3338 17.3024 51.607C17.745 50.8483 17.745 49.9628 17.3973 49.1099C17.0497 48.257 16.3522 47.4339 15.3736 46.8968ZM15.7847 46.2011C16.9229 46.8334 17.7447 47.7815 18.1554 48.8249C18.5661 49.8683 18.5664 51.0058 18.029 51.954C18.029 51.9858 18.029 52.0173 17.9975 52.0173C17.46 52.9655 16.4804 53.566 15.374 53.7557C14.2676 53.9136 13.0033 53.6927 11.8654 53.0604C10.6959 52.3965 9.87385 51.4484 9.46315 50.4054C9.05211 49.3305 9.05211 48.1926 9.58955 47.2126C10.127 46.2644 11.1066 45.664 12.2445 45.4742C13.4488 45.3067 14.6744 45.5518 15.7216 46.1696C15.7528 46.1696 15.7528 46.1696 15.7843 46.2011H15.7847Z" fill="#153647"/>
<path d="M38.7006 30.4282C35.698 31.5346 31.9996 32.0402 28.7438 32.0402C25.488 32.0402 21.7903 31.5346 18.7869 30.4282C17.7287 31.4369 16.9012 32.6625 16.361 34.021C15.8209 35.3795 15.5809 36.8388 15.6575 38.2987C12.8761 38.9625 11.4854 41.5545 11.5169 46.0116L11.6118 46.0746C12.7812 45.6321 14.2353 45.7903 15.563 46.5172C16.9537 47.3074 17.8388 48.6036 18.0292 49.8994L18.1875 50.2786C18.1242 50.4683 18.061 50.658 17.9977 50.8475C17.9956 50.9356 17.974 51.022 17.9344 51.1006C17.8977 51.3837 17.8766 51.6685 17.8713 51.9539C17.9344 53.408 18.1556 53.5659 19.4203 53.7556C21.6327 54.0718 23.0234 53.9454 24.1298 52.9336C25.6788 53.0915 27.1959 53.1548 28.7448 53.1864C30.2938 53.1548 31.8424 53.0915 33.3913 52.9336C34.4659 53.9451 35.8884 54.0715 38.0693 53.7556C39.3655 53.5659 39.5868 53.408 39.6183 51.9539C39.6183 51.6696 39.6183 51.385 39.5553 51.1006C39.5234 51.0373 39.5234 50.9424 39.4919 50.8475C39.4575 50.6494 39.3935 50.4576 39.3021 50.2786L39.4919 49.8994C39.6498 48.6036 40.5349 47.3074 41.9582 46.5172C43.254 45.7903 44.7396 45.6321 45.8775 46.0746L46.0039 46.0116C46.0039 41.5545 44.6447 38.9625 41.8314 38.2987C41.9079 36.8387 41.6677 35.3794 41.1273 34.0209C40.5869 32.6624 39.7591 31.4368 38.7006 30.4282Z" fill="#25B6FF"/>
<path d="M38.5743 30.049H38.6058C38.6719 30.0324 38.7412 30.0324 38.8073 30.0489C38.8734 30.0655 38.9345 30.0981 38.985 30.1439C40.0765 31.1992 40.9376 32.4692 41.5139 33.8738C42.0252 35.193 42.2721 36.5999 42.2408 38.0144C43.6 38.3939 44.643 39.2475 45.3387 40.543C46.0341 41.8707 46.4132 43.7039 46.3817 46.0116C46.3817 46.1695 46.3184 46.3277 46.1605 46.3908L46.0656 46.4223C46.0184 46.4505 45.9657 46.468 45.911 46.4735C45.8564 46.479 45.8012 46.4724 45.7494 46.4541C45.212 46.2644 44.6115 46.201 43.9795 46.2644C43.3787 46.3278 42.7464 46.5487 42.1459 46.8648C41.5139 47.2444 40.9765 47.7184 40.5973 48.224C40.2178 48.7615 39.965 49.3619 39.902 49.9309C39.8701 49.9628 39.8701 50.0258 39.8386 50.0573L39.7437 50.3104C39.7756 50.3419 39.7756 50.4053 39.8071 50.4368C39.8386 50.5632 39.8701 50.6581 39.902 50.753L39.9335 50.9109L39.965 51.0373C39.9682 51.1868 39.9895 51.3354 40.0284 51.4798V51.9858C39.9965 52.8079 39.902 53.2816 39.6173 53.5977C39.3012 53.9454 38.8586 54.0403 38.1317 54.1667C36.9938 54.3246 36.0457 54.3561 35.2544 54.2297C34.4632 54.1033 33.8004 53.8187 33.2314 53.3446C32.5361 53.408 31.8089 53.4713 31.082 53.5029C30.3233 53.5659 29.533 53.5659 28.7428 53.5977C27.9526 53.5659 27.1939 53.5659 26.4036 53.5029C25.7083 53.4713 24.9814 53.408 24.2542 53.3446C23.6853 53.819 23.0211 54.1033 22.263 54.2297C21.441 54.3561 20.4928 54.3246 19.3549 54.1667C18.628 54.0403 18.1855 53.9454 17.9008 53.5977C17.5847 53.2816 17.4898 52.8075 17.4898 51.9858C17.4579 51.8275 17.4898 51.6696 17.4898 51.5114C17.4898 51.3535 17.5213 51.2271 17.5528 51.0688V51.0058L17.5843 50.9109L17.6162 50.753C17.6477 50.6581 17.6792 50.5632 17.7107 50.4368L17.7426 50.3104L17.6477 50.0573C17.6477 50.0258 17.6162 49.9943 17.6162 49.9627C17.5528 49.3619 17.3 48.7615 16.889 48.224C16.4716 47.6695 15.9444 47.2068 15.3404 46.8648C14.7714 46.5487 14.1391 46.3278 13.5068 46.2644C12.8745 46.201 12.2736 46.2644 11.7684 46.4223C11.7215 46.4533 11.6665 46.4698 11.6103 46.4698C11.5541 46.4698 11.4991 46.4533 11.4522 46.4223L11.3574 46.3908C11.2825 46.3596 11.2186 46.3069 11.1736 46.2394C11.1286 46.1719 11.1046 46.0927 11.1046 46.0116C11.1046 43.7039 11.4522 41.9011 12.1794 40.543C12.8748 39.2472 13.8863 38.3939 15.2455 38.0144C15.215 36.5997 15.4629 35.1929 15.9751 33.8738C16.5514 32.4692 17.4125 31.1992 18.504 30.1439C18.5671 30.1121 18.5986 30.0806 18.662 30.049C18.7568 30.0172 18.8517 30.0172 18.9147 30.049C20.3688 30.5861 21.9493 30.9657 23.5613 31.2185C26.9955 31.7665 30.4949 31.7665 33.9292 31.2185C35.5713 30.9657 37.1517 30.5861 38.5743 30.049ZM38.6058 30.9023C37.1209 31.3937 35.5988 31.7643 34.0542 32.0104C32.284 32.2951 30.4507 32.453 28.7449 32.453C27.039 32.453 25.2363 32.2951 23.4355 32.0104C21.891 31.7649 20.3688 31.3949 18.8839 30.904C17.944 31.8367 17.2116 32.9572 16.7345 34.1924C16.2286 35.457 16.0073 36.8792 16.0707 38.3028C16.0707 38.4926 15.9443 38.6508 15.7545 38.7138C14.4902 38.9985 13.5102 39.7569 12.8772 40.9266C12.2767 42.0645 11.9606 43.6135 11.9287 45.5413C12.4775 45.4094 13.047 45.388 13.6041 45.4783C14.3313 45.5413 15.0581 45.7944 15.7535 46.1736C16.4566 46.5706 17.07 47.1087 17.5552 47.7541C17.9978 48.3864 18.3139 49.0817 18.4088 49.7771L18.5667 50.1248C18.6301 50.2197 18.5982 50.346 18.5667 50.4724C18.5352 50.5358 18.5037 50.6304 18.4718 50.6937C18.4403 50.7886 18.4088 50.8516 18.4088 50.9465L18.377 51.0729L18.3454 51.1993C18.3139 51.326 18.3139 51.4524 18.2824 51.5788V51.958C18.3139 52.5903 18.3455 52.9065 18.4718 53.0644C18.6301 53.2223 18.9459 53.2857 19.4834 53.3487C20.5582 53.507 21.4115 53.57 22.1387 53.4436C22.8025 53.3487 23.3718 53.0959 23.8456 52.6215C23.9402 52.5616 24.0494 52.5288 24.1614 52.5266C24.9201 52.6215 25.6788 52.653 26.469 52.7164C27.2278 52.7479 27.9861 52.7794 28.7449 52.7794C29.5036 52.7794 30.262 52.7479 31.0522 52.7164C31.8109 52.653 32.5696 52.6215 33.3283 52.5266C33.4547 52.5266 33.5811 52.5585 33.6442 52.6215C34.1501 53.0956 34.6875 53.3484 35.3829 53.4436C36.0782 53.57 36.9633 53.507 38.0064 53.3487C38.5753 53.2857 38.8915 53.2223 39.0179 53.0644C39.1443 52.9065 39.2073 52.5903 39.2073 51.958V51.5788C39.2073 51.4524 39.1758 51.326 39.1758 51.1993C39.1443 51.1678 39.1443 51.1048 39.1443 51.0729C39.1128 51.0414 39.1128 51.0099 39.1128 50.9465C39.0809 50.8516 39.0494 50.7886 39.0179 50.6937C39.0179 50.5988 38.9545 50.5358 38.923 50.4409C38.9049 50.3891 38.8984 50.334 38.9038 50.2794C38.9092 50.2248 38.9265 50.172 38.9545 50.1248L39.0809 49.7771C39.2166 49.0492 39.5077 48.3591 39.9345 47.7541C40.4086 47.1536 41.009 46.5847 41.7362 46.1736C42.4316 45.7944 43.1903 45.5413 43.8857 45.4783C44.4533 45.3874 45.0332 45.4088 45.5925 45.5413C45.561 43.6135 45.213 42.0645 44.6125 40.9266C43.9806 39.7569 43.0321 38.9985 41.7352 38.7138C41.6436 38.6813 41.5641 38.6214 41.5075 38.5423C41.451 38.4631 41.4201 38.3685 41.4191 38.2713C41.5139 36.8491 41.2612 35.4584 40.7552 34.1951C40.2787 32.9583 39.5462 31.8362 38.6058 30.9023Z" fill="#153647"/>
<path d="M38.7007 30.4282C35.6981 31.5346 31.9997 32.0402 28.7439 32.0402C25.4881 32.0402 21.7904 31.5346 18.787 30.4282C20.0513 35.233 23.6853 34.3794 24.8242 37.6667C25.8341 41.5422 25.9315 45.599 25.1089 49.5185C22.8961 50.4351 20.4309 50.6245 18.0917 50.0874L18.1866 50.2768C18.1233 50.4666 18.06 50.6563 17.9968 50.8458C17.9947 50.9338 17.9731 51.0203 17.9334 51.0989C17.8968 51.382 17.8757 51.6668 17.8704 51.9522C17.9334 53.4063 18.1547 53.5642 19.4193 53.7539C21.6318 54.0701 23.0225 53.9437 24.1289 52.9318C25.6778 53.0898 27.1949 53.1531 28.7439 53.1846C30.2928 53.1531 31.8414 53.0898 33.3904 52.9318C34.4649 53.9434 35.8875 54.0698 38.0684 53.7539C39.3646 53.5642 39.5858 53.4063 39.6174 51.9522C39.6174 51.6679 39.6174 51.3832 39.5543 51.0989C39.5225 51.0356 39.5225 50.9407 39.491 50.8458C39.4565 50.6477 39.3926 50.4559 39.3012 50.2768L39.3961 50.0874C37.0569 50.6245 34.6232 50.4351 32.4104 49.5185C31.5562 45.602 31.6538 41.5377 32.695 37.6667C33.8329 34.3794 37.4364 35.233 38.7007 30.4282Z" fill="white"/>
<path d="M41.9367 46.5068C39.7931 47.7204 38.8418 50.0946 39.8129 51.8096C40.784 53.5247 43.3068 53.9313 45.4525 52.7177C47.5981 51.5041 48.5473 49.13 47.5762 47.4149C46.6051 45.6998 44.0806 45.2936 41.9367 46.5068Z" fill="white"/>
<path d="M42.1794 46.8648C42.1476 46.8648 42.1476 46.8967 42.116 46.8967C41.136 47.4338 40.4407 48.2559 40.093 49.1091C39.7772 49.9627 39.7772 50.8475 40.1879 51.6062C40.599 52.3331 41.3573 52.8075 42.274 52.9339C43.1909 53.0918 44.2655 52.9024 45.2455 52.3649C46.2251 51.796 46.9523 50.9742 47.3007 50.0891C47.6168 49.267 47.6168 48.3507 47.2058 47.6229C46.7948 46.896 46.0364 46.4216 45.1197 46.2952C44.2004 46.138 43.1577 46.3284 42.1794 46.8648ZM39.3662 48.8248C39.7772 47.7814 40.5993 46.8333 41.7369 46.1695C42.9063 45.5371 44.1391 45.3162 45.2455 45.4741C46.3834 45.6639 47.3315 46.2644 47.9005 47.2125C47.9004 47.2167 47.9011 47.2208 47.9027 47.2247C47.9042 47.2286 47.9065 47.2321 47.9095 47.2351C47.9124 47.2381 47.9159 47.2404 47.9198 47.242C47.9236 47.2436 47.9278 47.2444 47.932 47.2444C48.4694 48.224 48.4694 49.3619 48.0269 50.4053C47.6158 51.4483 46.7937 52.3964 45.6562 53.0603C44.4867 53.6926 43.254 53.9135 42.1476 53.7556C41.0097 53.5659 40.0615 52.9654 39.4926 52.0173C39.4754 52.0002 39.4643 51.9779 39.461 51.9539C38.9222 51.0057 38.9222 49.8678 39.3648 48.8248H39.3662Z" fill="#153647"/>
<path d="M46.0025 45.9797C53.1464 41.365 55.5171 36.813 53.241 32.2933C52.609 31.0286 51.3447 30.238 49.9221 30.2702C49.2362 30.2866 48.5697 30.5013 48.0032 30.8883C47.4367 31.2753 46.9943 31.8182 46.7297 32.4512C45.8446 35.138 46.6348 37.9513 44.1377 39.5633C45.3705 40.8591 46.0025 43.0085 46.0025 45.9797Z" fill="#25B6FF"/>
<path d="M46.3816 45.253C49.5426 43.1036 51.6909 40.9857 52.7984 38.8996C53.9363 36.7502 53.9678 34.6008 52.8929 32.4829C52.6133 31.926 52.1869 31.4561 51.6598 31.1237C51.1461 30.8097 50.5549 30.6455 49.9529 30.6496C49.3209 30.6812 48.7198 30.8709 48.2145 31.2186C47.7164 31.5489 47.3305 32.023 47.1081 32.5778C46.8238 33.4314 46.729 34.3165 46.6026 35.1698C46.4128 36.8766 46.223 38.4886 44.7374 39.657C45.2434 40.289 45.6541 41.0792 45.9072 42.0273C46.1917 42.9453 46.3499 44.0206 46.3816 45.253ZM53.4937 39.2788C52.2606 41.618 49.8269 43.9887 46.1919 46.3279C46.1247 46.3674 46.0485 46.3891 45.9706 46.3909C45.7493 46.3909 45.5914 46.2012 45.5914 45.9799C45.5914 44.5261 45.4335 43.2934 45.1488 42.2503C44.8642 41.2703 44.4216 40.4483 43.8527 39.8793C43.8212 39.8478 43.7897 39.8163 43.7897 39.7848C43.6633 39.595 43.7263 39.3422 43.916 39.2473C45.4335 38.2673 45.6229 36.7187 45.8127 35.0749C45.9076 34.1898 46.0339 33.2416 46.3183 32.325L46.3501 32.2935C46.6308 31.5795 47.1282 30.9714 47.7723 30.5548C48.4046 30.1122 49.1315 29.8909 49.9217 29.8594C50.712 29.8279 51.4392 30.0492 52.0712 30.4284C52.7185 30.8496 53.2508 31.4254 53.6201 32.1037C54.821 34.5059 54.7895 36.8766 53.4937 39.2788Z" fill="#153647"/>
<path d="M53.7466 37.6666C54.3156 35.8649 54.1576 34.0947 53.2407 32.2933C52.6087 31.0286 51.3444 30.238 49.9218 30.2702C49.2359 30.2866 48.5694 30.5013 48.0029 30.8883C47.4364 31.2753 46.994 31.8182 46.7294 32.4512C46.3502 33.5891 46.2868 34.727 46.1289 35.8019C48.152 37.7307 51.0597 38.4569 53.7466 37.6666Z" fill="white"/>
<path d="M43.537 21.3881C44.4536 18.0058 43.2838 13.9283 41.1344 11.3997C41.7037 8.7762 42.2408 6.46716 41.988 3.97144C40.1086 4.87389 38.6165 6.42219 37.7841 8.33364C38.7007 9.1869 39.4909 9.97782 40.1232 10.641C39.4397 10.0877 38.6977 9.61075 37.9105 9.21876C41.988 13.6756 42.7782 16.9839 40.2812 19.1438C39.7756 19.3969 39.4591 19.934 39.4591 20.5029C39.4906 21.0719 39.9962 21.3565 40.3757 21.7991C46.1303 28.9427 24.3498 32.9569 14.2665 27.7099C16.9534 30.618 22.3691 31.914 30.5137 31.5977C42.3671 30.4918 46.7082 27.0886 43.537 21.3881Z" fill="#0D76AB" fill-opacity="0.35"/>
<path d="M43.8531 15.2261C43.948 15.4474 43.8531 15.6687 43.6322 15.7635C43.4424 15.8581 43.1896 15.7635 43.0947 15.5738C42.6206 14.4359 41.9568 13.3928 41.1981 12.4444C40.4394 11.4959 39.5539 10.6426 38.5431 9.94727V9.91576C37.9108 9.4732 37.5316 8.96728 37.4052 8.46169C37.2469 7.92425 37.4052 7.38715 37.8162 6.88123L37.8477 6.84971C38.4987 6.12966 39.2069 5.46364 39.9656 4.85821C40.7559 4.25774 41.5776 3.7203 42.4627 3.27774C42.6525 3.15135 42.9053 3.24623 43.0002 3.43599C43.0317 3.46751 43.0317 3.53053 43.0317 3.5939V3.56239C43.2211 5.16694 43.2845 6.78386 43.2215 8.39832C43.1253 9.95718 42.9353 11.5088 42.6525 13.0448C43.102 13.7437 43.5031 14.4725 43.8531 15.2261ZM41.8301 11.9378L41.9883 12.1272C42.2096 10.894 42.336 9.63008 42.3994 8.36578C42.4621 6.99508 42.4304 5.62168 42.3045 4.25534C41.6722 4.63453 41.0714 5.04557 40.4712 5.48847C39.7442 6.06205 39.0674 6.69656 38.4482 7.3851C38.1951 7.70092 38.1005 7.98556 38.1951 8.26987C38.2584 8.58603 38.5431 8.93371 39.0172 9.28138C40.0917 10.0404 41.0402 10.9256 41.8301 11.9378Z" fill="#153647"/>
<path d="M15.4681 3.93994C15.4366 6.56343 15.7525 9.18692 16.3533 11.7474C17.0588 10.9428 17.8541 10.2216 18.7236 9.59796C19.83 8.77587 20.0513 7.95378 19.3875 7.1317C18.2523 5.87323 16.9304 4.79674 15.4681 3.93994Z" fill="#0D76AB" fill-opacity="0.35"/>
<path d="M14.3932 15.5721C14.3718 15.622 14.3406 15.667 14.3015 15.7046C14.2623 15.7421 14.2159 15.7713 14.1652 15.7905C14.1144 15.8097 14.0603 15.8184 14.0061 15.8162C13.9519 15.8139 13.8987 15.8007 13.8497 15.7774C13.8007 15.7541 13.7569 15.7211 13.721 15.6805C13.685 15.6398 13.6577 15.5923 13.6405 15.5408C13.6234 15.4893 13.6169 15.4349 13.6213 15.3808C13.6257 15.3268 13.641 15.2741 13.6663 15.2261C13.9917 14.4602 14.3941 13.7294 14.8672 13.0448C14.5535 11.5137 14.3632 9.95989 14.2983 8.39832C14.2353 6.78634 14.2668 5.17437 14.4565 3.56239V3.5939C14.4575 3.53533 14.48 3.47916 14.5196 3.43599C14.6144 3.24623 14.8672 3.15135 15.057 3.27774C15.9312 3.71844 16.7576 4.24806 17.5233 4.85821C18.2921 5.46321 19.0109 6.12921 19.6727 6.84971L19.7042 6.88123C20.1152 7.38715 20.2416 7.92425 20.1152 8.46169C19.957 8.96728 19.5778 9.4732 18.9455 9.91576V9.94727C17.9658 10.6426 17.0807 11.4962 16.2905 12.4444C15.5263 13.4011 14.8887 14.4523 14.3932 15.5721ZM15.4996 12.1265L15.6575 11.9371C16.4761 10.9337 17.4218 10.0411 18.4707 9.28172C18.9448 8.93405 19.2294 8.58637 19.3243 8.27021C19.3873 7.98591 19.3243 7.70126 19.0715 7.38544C18.4392 6.68975 17.7754 6.05777 17.0163 5.48881C16.4412 5.04187 15.8397 4.63008 15.2149 4.25568C15.0941 5.62228 15.0518 6.99468 15.0882 8.36612C15.1529 9.6294 15.3098 10.8937 15.4996 12.1265Z" fill="#153647"/>
<path d="M28.744 18.6382C29.8186 18.6382 30.7037 18.7331 30.7037 18.891C30.7037 19.0489 29.8186 19.1756 28.744 19.1756C27.6695 19.1756 26.7844 19.0492 26.7844 18.891C26.7844 18.7327 27.6695 18.6382 28.744 18.6382Z" fill="white" fill-opacity="0.31"/>
<path d="M38.7006 30.4283C42.2092 33.7471 42.3658 38.5519 41.5139 43.1021C41.6718 42.5966 41.8616 42.1221 42.0513 41.6481C41.9246 43.8609 43.1259 45.1567 45.5914 45.5677C43.5051 45.4413 41.6088 46.4528 39.9334 48.5704C39.3645 49.6453 39.2696 50.8781 39.6173 52.2355C39.7121 53.6262 38.4794 54.1952 35.9179 53.9105C32.2527 53.2152 32.8518 40.1293 33.0748 37.5688C31.7788 40.9969 31.4614 44.7178 32.1582 48.3159C32.3795 52.267 33.6123 54.1322 35.9196 53.9105C39.1124 53.0258 36.5834 51.4443 36.6153 50.9712C36.6153 50.813 36.7417 50.6551 36.8996 50.6551C38.5749 50.813 39.9656 40.6667 38.7643 35.4827C38.1954 33.3964 36.8996 32.5746 34.845 32.9857C32.8535 33.4282 30.799 33.6176 28.776 33.5861C26.7208 33.6176 24.6655 33.4282 22.6754 32.9857C20.6202 32.5746 19.325 33.3967 18.7561 35.4827C17.5548 40.6667 18.9455 50.813 20.6209 50.6551C20.7791 50.6551 20.9055 50.813 20.9055 50.9712C20.937 51.4453 18.4392 53.0265 21.5693 53.9105C25.2345 53.1837 24.6354 40.1293 24.4124 37.5688C25.7084 40.9969 26.0258 44.7178 25.329 48.3159C25.1077 52.267 23.875 54.1322 21.5676 53.9105C19.0387 54.1637 17.8059 53.6262 17.9025 52.2355C18.282 50.8445 18.1553 49.5802 17.5548 48.4741L17.5863 48.5687C15.8795 46.4511 13.9832 45.4396 11.8968 45.566C14.3939 45.155 15.5637 43.8591 15.4688 41.6464C15.6582 42.1523 15.848 42.7212 16.0377 43.2905C15.1841 38.6755 15.279 33.8077 18.8191 30.4255C22.0041 31.5537 25.3661 32.0998 28.7445 32.0375H28.776C32.1541 32.1031 35.5163 31.5579 38.7006 30.4283Z" fill="#00AAFF" fill-opacity="0.35"/>
<path d="M24.1275 52.934C25.2024 48.8578 25.8028 49.8994 25.8344 43.4197C27.3833 45.6321 29.4378 45.8219 31.4924 43.7358C31.3978 48.6982 32.3775 47.812 33.389 52.934C30.331 53.5344 27.1855 53.5344 24.1275 52.934Z" fill="#0D76AB" fill-opacity="0.35"/>
<path d="M41.357 36.4654C41.3255 36.2441 41.5152 36.0228 41.7365 36.0228C41.9578 35.9913 42.1476 36.1495 42.1791 36.3708C42.337 38.5833 42.2736 40.7327 41.9259 42.8821C41.5783 45 40.9463 47.1176 40.0612 49.2039C39.9978 49.3937 39.745 49.4883 39.5556 49.4252C39.3343 49.3303 39.2394 49.0776 39.3343 48.8878C40.1876 46.8648 40.7884 44.8116 41.1042 42.7564C41.4571 40.6788 41.5421 38.5646 41.357 36.4654Z" fill="#153647"/>
<path d="M15.3421 36.3708C15.3421 36.1495 15.5634 35.9913 15.7844 36.0228C16.0056 36.0228 16.1639 36.2441 16.1324 36.4654C15.9741 38.5833 16.0375 40.6696 16.3852 42.7557C16.7356 44.8612 17.3295 46.9188 18.155 48.8871C18.2499 49.0769 18.155 49.3297 17.9656 49.4245C17.7443 49.4876 17.5231 49.393 17.4282 49.2033C16.5672 47.1766 15.9517 45.0543 15.5949 42.8814C15.2415 40.73 15.1566 38.5431 15.3421 36.3708Z" fill="#153647"/>
<path d="M33.7695 52.7756C33.8032 52.8805 33.7958 52.9943 33.7489 53.094C33.702 53.1938 33.619 53.272 33.5167 53.313C33.2954 53.3764 33.0742 53.2815 33.0111 53.0602C31.1935 48.0927 30.9397 42.6878 32.2839 37.5717C32.3181 37.4727 32.3889 37.3905 32.4817 37.3419C32.5745 37.2932 32.6824 37.2819 32.7833 37.3101C32.8842 37.3384 32.9705 37.4041 33.0245 37.4939C33.0786 37.5836 33.0964 37.6906 33.0742 37.793C32.4103 40.2593 32.1575 42.8191 32.2839 45.3477C32.3788 47.8763 32.8847 50.3734 33.7695 52.7756Z" fill="#153647"/>
<path d="M24.5086 53.0603C24.4137 53.2816 24.1925 53.3765 24.0027 53.3131C23.7814 53.2182 23.655 52.9973 23.7499 52.7757C24.635 50.3735 25.1091 47.8774 25.2355 45.3478C25.357 42.8021 25.0796 40.2531 24.4134 37.7931C24.3815 37.5719 24.5083 37.3506 24.6977 37.2876C24.7496 37.2724 24.804 37.2677 24.8577 37.2739C24.9114 37.28 24.9633 37.2968 25.0105 37.3233C25.0576 37.3498 25.099 37.3854 25.1321 37.4281C25.1653 37.4708 25.1896 37.5196 25.2036 37.5719C25.8702 40.1179 26.1473 42.7502 26.0257 45.3793C25.9308 47.9726 25.3951 50.5632 24.5086 53.0603Z" fill="#153647"/>
<path d="M16.9537 47.687C18.06 48.9513 18.4077 50.5948 17.6805 51.8591C16.7324 53.566 14.2038 53.977 12.0859 52.7757C10.5369 51.891 9.58878 50.3735 9.58878 48.9828C9.99605 49.4173 10.4646 49.79 10.9795 50.0892C13.0974 51.2902 15.626 50.8795 16.5745 49.1726C16.8287 48.7191 16.9595 48.2069 16.9537 47.687ZM40.5024 47.687C39.396 48.9513 39.0483 50.5948 39.7755 51.8591C40.7552 53.566 43.2523 53.977 45.4017 52.7757C46.9506 51.891 47.8679 50.3735 47.8679 48.9828C47.4722 49.4169 47.0141 49.7898 46.5087 50.0892C44.3593 51.2902 41.8622 50.8795 40.8822 49.1726C40.6278 48.7192 40.4968 48.2069 40.5024 47.687Z" fill="#0D76AB" fill-opacity="0.35"/>
<path d="M42.1794 46.8648C42.1476 46.8648 42.1476 46.8967 42.116 46.8967C41.136 47.4338 40.4407 48.2559 40.093 49.1091C39.7772 49.9627 39.7772 50.8475 40.1879 51.6062C40.599 52.3331 41.3573 52.8075 42.274 52.9339C43.1909 53.0918 44.2655 52.9024 45.2455 52.3649C46.2251 51.796 46.9523 50.9742 47.3007 50.0891C47.6168 49.267 47.6168 48.3507 47.2058 47.6229C46.7948 46.896 46.0364 46.4216 45.1197 46.2952C44.2004 46.138 43.1577 46.3284 42.1794 46.8648ZM39.3662 48.8248C39.7772 47.7814 40.5993 46.8333 41.7369 46.1695C42.9063 45.5371 44.1391 45.3162 45.2455 45.4741C46.3834 45.6639 47.3315 46.2644 47.9005 47.2125C47.9004 47.2167 47.9011 47.2208 47.9027 47.2247C47.9042 47.2286 47.9065 47.2321 47.9095 47.2351C47.9124 47.2381 47.9159 47.2404 47.9198 47.242C47.9236 47.2436 47.9278 47.2444 47.932 47.2444C48.4694 48.224 48.4694 49.3619 48.0269 50.4053C47.6158 51.4483 46.7937 52.3964 45.6562 53.0603C44.4867 53.6926 43.254 53.9135 42.1476 53.7556C41.0097 53.5659 40.0615 52.9654 39.4926 52.0173C39.4754 52.0002 39.4643 51.9779 39.461 51.9539C38.9222 51.0057 38.9222 49.8678 39.3648 48.8248H39.3662Z" fill="#153647"/>
<path d="M15.3736 46.8968L15.3421 46.8649C14.3621 46.3278 13.2869 46.138 12.3706 46.296C11.4858 46.4224 10.7264 46.8968 10.2846 47.6236C9.87351 48.3508 9.87351 49.2678 10.2212 50.0899C10.5689 50.975 11.2646 51.7968 12.2442 52.3657C13.2557 52.9031 14.2994 53.0926 15.2472 52.9347C16.1323 52.8083 16.8914 52.3338 17.3024 51.607C17.745 50.8483 17.745 49.9628 17.3973 49.1099C17.0497 48.257 16.3522 47.4339 15.3736 46.8968ZM15.7847 46.2011C16.9229 46.8334 17.7447 47.7815 18.1554 48.8249C18.5661 49.8683 18.5664 51.0058 18.029 51.954C18.029 51.9858 18.029 52.0173 17.9975 52.0173C17.46 52.9655 16.4804 53.566 15.374 53.7557C14.2676 53.9136 13.0033 53.6927 11.8654 53.0604C10.6959 52.3965 9.87385 51.4484 9.46315 50.4054C9.05211 49.3305 9.05211 48.1926 9.58955 47.2126C10.127 46.2644 11.1066 45.664 12.2445 45.4742C13.4488 45.3067 14.6744 45.5518 15.7216 46.1696C15.7528 46.1696 15.7528 46.1696 15.7843 46.2011H15.7847Z" fill="#153647"/>
<path d="M38.5743 30.049H38.6058C38.6719 30.0324 38.7412 30.0324 38.8073 30.0489C38.8734 30.0655 38.9345 30.0981 38.985 30.1439C40.0765 31.1992 40.9376 32.4692 41.5139 33.8738C42.0252 35.193 42.2721 36.5999 42.2408 38.0144C43.6 38.3939 44.643 39.2475 45.3387 40.543C46.0341 41.8707 46.4132 43.7039 46.3817 46.0116C46.3817 46.1695 46.3184 46.3277 46.1605 46.3908L46.0656 46.4223C46.0184 46.4505 45.9657 46.468 45.911 46.4735C45.8564 46.479 45.8012 46.4724 45.7494 46.4541C45.212 46.2644 44.6115 46.201 43.9795 46.2644C43.3787 46.3278 42.7464 46.5487 42.1459 46.8648C41.5139 47.2444 40.9765 47.7184 40.5973 48.224C40.2178 48.7615 39.965 49.3619 39.902 49.9309C39.8701 49.9628 39.8701 50.0258 39.8386 50.0573L39.7437 50.3104C39.7756 50.3419 39.7756 50.4053 39.8071 50.4368C39.8386 50.5632 39.8701 50.6581 39.902 50.753L39.9335 50.9109L39.965 51.0373C39.9682 51.1868 39.9895 51.3354 40.0284 51.4798V51.9858C39.9965 52.8079 39.902 53.2816 39.6173 53.5977C39.3012 53.9454 38.8586 54.0403 38.1317 54.1667C36.9938 54.3246 36.0457 54.3561 35.2544 54.2297C34.4632 54.1033 33.8004 53.8187 33.2314 53.3446C32.5361 53.408 31.8089 53.4713 31.082 53.5029C30.3233 53.5659 29.533 53.5659 28.7428 53.5977C27.9526 53.5659 27.1939 53.5659 26.4036 53.5029C25.7083 53.4713 24.9814 53.408 24.2542 53.3446C23.6853 53.819 23.0211 54.1033 22.263 54.2297C21.441 54.3561 20.4928 54.3246 19.3549 54.1667C18.628 54.0403 18.1855 53.9454 17.9008 53.5977C17.5847 53.2816 17.4898 52.8075 17.4898 51.9858C17.4579 51.8275 17.4898 51.6696 17.4898 51.5114C17.4898 51.3535 17.5213 51.2271 17.5528 51.0688V51.0058L17.5843 50.9109L17.6162 50.753C17.6477 50.6581 17.6792 50.5632 17.7107 50.4368L17.7426 50.3104L17.6477 50.0573C17.6477 50.0258 17.6162 49.9943 17.6162 49.9627C17.5528 49.3619 17.3 48.7615 16.889 48.224C16.4716 47.6695 15.9444 47.2068 15.3404 46.8648C14.7714 46.5487 14.1391 46.3278 13.5068 46.2644C12.8745 46.201 12.2736 46.2644 11.7684 46.4223C11.7215 46.4533 11.6665 46.4698 11.6103 46.4698C11.5541 46.4698 11.4991 46.4533 11.4522 46.4223L11.3574 46.3908C11.2825 46.3596 11.2186 46.3069 11.1736 46.2394C11.1286 46.1719 11.1046 46.0927 11.1046 46.0116C11.1046 43.7039 11.4522 41.9011 12.1794 40.543C12.8748 39.2472 13.8863 38.3939 15.2455 38.0144C15.215 36.5997 15.4629 35.1929 15.9751 33.8738C16.5514 32.4692 17.4125 31.1992 18.504 30.1439C18.5671 30.1121 18.5986 30.0806 18.662 30.049C18.7568 30.0172 18.8517 30.0172 18.9147 30.049C20.3688 30.5861 21.9493 30.9657 23.5613 31.2185C26.9955 31.7665 30.4949 31.7665 33.9292 31.2185C35.5713 30.9657 37.1517 30.5861 38.5743 30.049ZM38.6058 30.9023C37.1209 31.3937 35.5988 31.7643 34.0542 32.0104C32.284 32.2951 30.4507 32.453 28.7449 32.453C27.039 32.453 25.2363 32.2951 23.4355 32.0104C21.891 31.7649 20.3688 31.3949 18.8839 30.904C17.944 31.8367 17.2116 32.9572 16.7345 34.1924C16.2286 35.457 16.0073 36.8792 16.0707 38.3028C16.0707 38.4926 15.9443 38.6508 15.7545 38.7138C14.4902 38.9985 13.5102 39.7569 12.8772 40.9266C12.2767 42.0645 11.9606 43.6135 11.9287 45.5413C12.4775 45.4094 13.047 45.388 13.6041 45.4783C14.3313 45.5413 15.0581 45.7944 15.7535 46.1736C16.4566 46.5706 17.07 47.1087 17.5552 47.7541C17.9978 48.3864 18.3139 49.0817 18.4088 49.7771L18.5667 50.1248C18.6301 50.2197 18.5982 50.346 18.5667 50.4724C18.5352 50.5358 18.5037 50.6304 18.4718 50.6937C18.4403 50.7886 18.4088 50.8516 18.4088 50.9465L18.377 51.0729L18.3454 51.1993C18.3139 51.326 18.3139 51.4524 18.2824 51.5788V51.958C18.3139 52.5903 18.3455 52.9065 18.4718 53.0644C18.6301 53.2223 18.9459 53.2857 19.4834 53.3487C20.5582 53.507 21.4115 53.57 22.1387 53.4436C22.8025 53.3487 23.3718 53.0959 23.8456 52.6215C23.9402 52.5616 24.0494 52.5288 24.1614 52.5266C24.9201 52.6215 25.6788 52.653 26.469 52.7164C27.2278 52.7479 27.9861 52.7794 28.7449 52.7794C29.5036 52.7794 30.262 52.7479 31.0522 52.7164C31.8109 52.653 32.5696 52.6215 33.3283 52.5266C33.4547 52.5266 33.5811 52.5585 33.6442 52.6215C34.1501 53.0956 34.6875 53.3484 35.3829 53.4436C36.0782 53.57 36.9633 53.507 38.0064 53.3487C38.5753 53.2857 38.8915 53.2223 39.0179 53.0644C39.1443 52.9065 39.2073 52.5903 39.2073 51.958V51.5788C39.2073 51.4524 39.1758 51.326 39.1758 51.1993C39.1443 51.1678 39.1443 51.1048 39.1443 51.0729C39.1128 51.0414 39.1128 51.0099 39.1128 50.9465C39.0809 50.8516 39.0494 50.7886 39.0179 50.6937C39.0179 50.5988 38.9545 50.5358 38.923 50.4409C38.9049 50.3891 38.8984 50.334 38.9038 50.2794C38.9092 50.2248 38.9265 50.172 38.9545 50.1248L39.0809 49.7771C39.2166 49.0492 39.5077 48.3591 39.9345 47.7541C40.4086 47.1536 41.009 46.5847 41.7362 46.1736C42.4316 45.7944 43.1903 45.5413 43.8857 45.4783C44.4533 45.3874 45.0332 45.4088 45.5925 45.5413C45.561 43.6135 45.213 42.0645 44.6125 40.9266C43.9806 39.7569 43.0321 38.9985 41.7352 38.7138C41.6436 38.6813 41.5641 38.6214 41.5075 38.5423C41.451 38.4631 41.4201 38.3685 41.4191 38.2713C41.5139 36.8491 41.2612 35.4584 40.7552 34.1951C40.2787 32.9583 39.5462 31.8362 38.6058 30.9023Z" fill="#153647"/>
<path d="M46.2237 45.8533C45.7181 43.9252 45.3389 42.092 45.1492 40.4166C46.2556 41.7443 47.7411 41.6497 49.0685 39.7528C52.5456 34.8853 52.3568 31.6295 49.1003 30.3652C52.451 30.0172 54.0945 32.1036 53.9986 36.5922C53.1779 40.1008 50.5859 43.1983 46.2237 45.8533Z" fill="#0D76AB" fill-opacity="0.35"/>
<path d="M46.3816 45.253C49.5426 43.1036 51.6909 40.9857 52.7984 38.8996C53.9363 36.7502 53.9678 34.6008 52.8929 32.4829C52.6133 31.926 52.1869 31.4561 51.6598 31.1237C51.1461 30.8097 50.5549 30.6455 49.9529 30.6496C49.3209 30.6812 48.7198 30.8709 48.2145 31.2186C47.7164 31.5489 47.3305 32.023 47.1081 32.5778C46.8238 33.4314 46.729 34.3165 46.6026 35.1698C46.4128 36.8766 46.223 38.4886 44.7374 39.657C45.2434 40.289 45.6541 41.0792 45.9072 42.0273C46.1917 42.9453 46.3499 44.0206 46.3816 45.253ZM53.4937 39.2788C52.2606 41.618 49.8269 43.9887 46.1919 46.3279C46.1247 46.3674 46.0485 46.3891 45.9706 46.3909C45.7493 46.3909 45.5914 46.2012 45.5914 45.9799C45.5914 44.5261 45.4335 43.2934 45.1488 42.2503C44.8642 41.2703 44.4216 40.4483 43.8527 39.8793C43.8212 39.8478 43.7897 39.8163 43.7897 39.7848C43.6633 39.595 43.7263 39.3422 43.916 39.2473C45.4335 38.2673 45.6229 36.7187 45.8127 35.0749C45.9076 34.1898 46.0339 33.2416 46.3183 32.325L46.3501 32.2935C46.6308 31.5795 47.1282 30.9714 47.7723 30.5548C48.4046 30.1122 49.1315 29.8909 49.9217 29.8594C50.712 29.8279 51.4392 30.0492 52.0712 30.4284C52.7185 30.8496 53.2508 31.4254 53.6201 32.1037C54.821 34.5059 54.7895 36.8766 53.4937 39.2788Z" fill="#153647"/>
<path d="M28.7437 32.4513C24.3185 32.4513 19.0715 31.5028 15.7839 29.4801C14.8042 28.8793 14.014 28.1524 13.445 27.3622C12.8446 26.5401 12.5284 25.6238 12.5284 24.6123C12.5284 23.6008 12.8446 22.5259 13.5399 21.324C13.2868 20.2806 13.1604 19.2376 13.1922 18.1631C13.2296 17.0799 13.4102 16.0064 13.7293 14.9706C13.034 12.5999 12.6863 10.1658 12.6548 7.70027C12.6233 5.20318 12.9076 2.70609 13.5714 0.303878C13.5855 0.251702 13.6098 0.202849 13.6429 0.160178C13.676 0.117507 13.7174 0.0818749 13.7644 0.0553683C13.8115 0.0288617 13.8634 0.012013 13.9171 0.00580778C13.9708 -0.000397491 14.0251 0.00416542 14.077 0.0192299H14.1404C15.9935 0.736129 17.799 1.57077 19.5456 2.51803C21.221 3.46618 22.8644 4.5092 24.4134 5.67862C25.1087 5.55234 25.8041 5.45757 26.4994 5.39431C27.2267 5.33094 27.985 5.29943 28.7437 5.29943C29.5026 5.29943 30.2612 5.33106 31.0196 5.39431C31.7149 5.45734 32.4103 5.55223 33.0748 5.67862C34.6237 4.5092 36.2672 3.46618 37.9731 2.51803C39.7114 1.56955 41.5132 0.716292 43.3779 0.0206004C43.4829 -0.012856 43.5967 -0.00535456 43.6964 0.0415991C43.7961 0.0885528 43.8743 0.171483 43.9154 0.273735V0.305248C44.5781 2.71378 44.8973 5.20384 44.8635 7.70164C44.828 10.1642 44.4559 12.6103 43.7575 14.972C44.1051 16.015 44.2631 17.0895 44.2946 18.1644C44.3322 19.2275 44.226 20.2908 43.9788 21.3254C44.6741 22.5263 44.9903 23.6012 44.9903 24.6137C44.9903 25.6262 44.6422 26.5418 44.0736 27.3636C43.5043 28.1538 42.6826 28.8807 41.7029 29.4815C38.4478 31.5028 33.2005 32.4513 28.7437 32.4513ZM16.2264 28.7861C19.3558 30.7143 24.4449 31.6309 28.7437 31.6309C33.0741 31.6309 38.1316 30.7143 41.2926 28.7861C42.1777 28.2487 42.9046 27.6164 43.4105 26.8895C43.8846 26.2257 44.1689 25.4354 44.1689 24.6137C44.1689 23.6971 43.8846 22.7171 43.1892 21.6107C43.1258 21.5158 43.1258 21.4209 43.1573 21.2945C43.4152 20.2829 43.5321 19.2406 43.505 18.197C43.4673 17.1443 43.2862 16.1018 42.9669 15.098C42.935 15.0347 42.935 14.9398 42.9669 14.8449C43.6526 12.5246 44.0142 10.1206 44.0414 7.7013C44.0792 5.42154 43.8135 3.14689 43.2512 0.937229C41.5759 1.60072 39.9324 2.35944 38.3529 3.24456C36.6461 4.1927 35.0022 5.23572 33.4204 6.437C33.3574 6.50036 33.231 6.53188 33.1046 6.50037C32.4089 6.37397 31.682 6.27909 30.9552 6.21572C30.2209 6.12723 29.4819 6.08501 28.7424 6.08932C28.0138 6.08475 27.2858 6.12755 26.5628 6.21743C25.8356 6.2808 25.1087 6.37568 24.4134 6.50208C24.3542 6.51622 24.2927 6.51788 24.2329 6.50697C24.173 6.49606 24.1161 6.47282 24.0657 6.43871C22.5168 5.23743 20.8733 4.19441 19.1332 3.24627C17.5566 2.3631 15.9198 1.59208 14.2349 0.938941C13.6975 3.15138 13.4128 5.42617 13.4447 7.70301C13.4762 10.1056 13.8557 12.5078 14.5511 14.8466C14.5511 14.9415 14.5826 15.0049 14.5511 15.0997C14.2068 16.0978 14.015 17.1421 13.9821 18.1973C13.95 19.2431 14.0778 20.2877 14.3613 21.2949C14.3928 21.3897 14.3613 21.5161 14.2979 21.611C13.6345 22.7174 13.3183 23.6974 13.3183 24.614C13.3183 25.4361 13.6026 26.226 14.0767 26.8899C14.5829 27.615 15.3098 28.2473 16.2264 28.7848V28.7861Z" fill="#153647"/>
</svg>
